<svg width="242.000000" height="49.000000" viewBox="0 0 242 49" fill="none" xmlns="http://www.w3.org/2000/svg" xmlns:xlink="http://www.w3.org/1999/xlink">
	<desc>
			Created with Pixso.
	</desc>
	<defs>
		<clipPath id="clip12352_7779">
			<rect id="samolet_infoblock_rgb-blue 1" rx="0.000000" width="241.000000" height="48.000000" transform="translate(0.500000 0.500000)" fill="white" fill-opacity="0"/>
		</clipPath>
	</defs>
	<rect id="samolet_infoblock_rgb-blue 1" rx="0.000000" width="241.000000" height="48.000000" transform="translate(0.500000 0.500000)" fill="#FFFFFF" fill-opacity="0"/>
	<g clip-path="url(#clip12352_7779)">
		<path id="Vector" d="M28.18 20.68L25.56 23.3C25.21 23.65 24.65 23.65 24.31 23.3L18.61 17.59C18.26 17.24 18.26 16.68 18.61 16.34L21.23 13.72C21.58 13.37 22.13 13.37 22.47 13.72L28.18 19.43C28.52 19.77 28.52 20.33 28.18 20.68ZM29.16 21.66L18.72 32.12C18.37 32.46 18.37 33.02 18.72 33.36L21.29 35.94C21.63 36.28 22.19 36.28 22.53 35.94L32.98 25.48C33.33 25.13 33.33 24.58 32.98 24.24L30.41 21.66C30.07 21.31 29.5 21.31 29.16 21.66Z" fill="#007BFB" fill-opacity="1.000000" fill-rule="nonzero"/>
		<path id="Vector" d="M108.88 14.28L116.04 14.28L121.81 29.59L127.54 14.28L134.45 14.28L134.45 34.7L129.85 34.7L129.85 19.09L123.87 34.7L119.15 34.7L113.16 19.17L113.16 34.7L108.87 34.7L108.87 14.28L108.88 14.28Z" fill="#007BFB" fill-opacity="1.000000" fill-rule="nonzero"/>
		<path id="Vector" d="M164.45 14.28L180.25 14.28L180.25 34.7L175.36 34.7L175.36 18.58L168.92 18.58C168.87 21.46 168.79 25.29 168.71 27.44C168.54 32.8 166.98 34.7 162.39 34.7L160.2 34.7L160.2 30.4L161.42 30.4C163.48 30.4 164.16 29.47 164.29 26.56C164.41 23.44 164.45 17.24 164.45 14.28Z" fill="#007BFB" fill-opacity="1.000000" fill-rule="nonzero"/>
		<path id="Vector" d="M205.24 14.28L223.82 14.28L223.82 18.58L216.96 18.58L216.96 34.7L212.11 34.7L212.11 18.58L205.25 18.58L205.25 14.28L205.24 14.28Z" fill="#007BFB" fill-opacity="1.000000" fill-rule="nonzero"/>
		<path id="Vector" d="M96.23 13.87L94.48 13.87C90.28 13.87 87.1 16.43 86.37 20.24L90.83 20.95C91.45 19.14 92.85 17.89 94.62 17.82C95.2 17.79 95.06 17.8 95.64 17.82C98.27 17.91 99.47 19.18 99.47 22.31C94.47 22.31 91.05 22.08 88.54 23.73C86.48 25.08 85.6 26.59 85.6 28.96C85.6 32.4 88.27 35.12 92.58 35.12C93.26 35.12 92.98 35.12 93.18 35.12C96.22 35.12 98.69 33.93 99.69 32.5L99.69 34.7L104.19 34.7L104.19 22.39C104.18 17.65 101.64 13.87 96.23 13.87ZM93.49 31.14C91.57 31.08 90.47 29.97 90.47 28.57C90.47 27.41 90.99 26.84 91.68 26.44C92.4 26.01 93.35 25.86 94.81 25.81C96.22 25.77 97.35 25.7 99.53 25.7C99.53 29.19 97.34 30.94 94.62 31.12C94.2 31.16 93.94 31.15 93.49 31.14Z" fill="#007BFB" fill-opacity="1.000000" fill-rule="nonzero"/>
		<path id="Vector" d="M204.1 25.87L204.1 23.96C204.1 17.37 199.97 13.97 194.64 13.97L193.59 13.97C187.84 13.97 184.18 17.89 183.99 23.42C183.96 24.24 183.96 24.57 183.99 25.68C184.12 31.19 187.98 34.9 193.13 35.03C194.07 35.06 193.95 35.06 194.84 35.03C199.33 34.91 202.72 32.32 203.72 28.93L199.39 28.17C198.32 30.3 196.3 31.11 194.68 31.19C194.17 31.22 194.1 31.22 193.59 31.19C191.05 31.09 188.79 29.1 188.79 26.21L188.79 25.89L204.1 25.89L204.1 25.87ZM193.51 17.81C194.02 17.79 194.2 17.79 194.71 17.81C196.84 17.92 199.08 19.31 199.29 22.05L188.81 22.05C189.06 19.6 191.03 17.94 193.51 17.81Z" fill="#007BFB" fill-opacity="1.000000" fill-rule="nonzero"/>
		<path id="Vector" d="M158.86 22.69C158.75 17.75 154.77 13.97 149.5 13.97L147.6 13.97C142.34 13.97 138.36 17.75 138.25 22.72C138.22 24.1 138.22 24.9 138.25 26.27C138.35 31.24 142.33 35.02 147.6 35.02L149.5 35.02C154.76 35.02 158.74 31.24 158.86 26.27C158.89 24.9 158.89 24.07 158.86 22.69ZM154.06 26.02C154 28.9 151.9 30.86 149.08 31.01C148.54 31.04 148.58 31.04 148.04 31.01C145.19 30.87 143.12 28.91 143.06 26.02C143.04 24.82 143.04 24.14 143.06 22.94C143.12 20.09 145.19 18.13 148.04 17.99C148.58 17.96 148.54 17.96 149.08 17.99C151.9 18.13 154 20.09 154.06 22.98C154.08 24.17 154.08 24.83 154.06 26.02Z" fill="#007BFB" fill-opacity="1.000000" fill-rule="nonzero"/>
		<path id="Vector" d="M78.03 27.5C77.46 29.39 75.94 30.69 73.9 30.98C73.31 31.06 72.73 31.04 72.25 30.97C69.71 30.61 67.92 28.7 67.86 26.02C67.83 24.82 67.83 24.14 67.86 22.94C67.91 20.24 69.79 18.26 72.38 17.99C72.53 17.97 73.09 17.92 73.64 17.98C75.82 18.21 77.45 19.52 78.04 21.51L82.78 20.59C81.76 16.72 78.25 13.97 73.76 13.97L72.4 13.97C67.15 13.97 63.17 17.75 63.05 22.72C63.03 24.1 63.03 24.9 63.05 26.27C63.16 31.24 67.14 35.02 72.4 35.02L73.76 35.02C78.34 35.02 81.88 32.17 82.82 28.15L78.03 27.5Z" fill="#007BFB" fill-opacity="1.000000" fill-rule="nonzero"/>
	</g>
</svg>
