<svg width="196.000000" height="37.000000" viewBox="0 0 196 37" fill="none" xmlns="http://www.w3.org/2000/svg" xmlns:xlink="http://www.w3.org/1999/xlink">
	<desc>
			Created with Pixso.
	</desc>
	<defs>
		<clipPath id="clip12352_7838">
			<rect id="logo 1" rx="0.000000" width="195.000000" height="36.000000" transform="translate(0.500000 0.500000)" fill="white" fill-opacity="0"/>
		</clipPath>
	</defs>
	<rect id="logo 1" rx="0.000000" width="195.000000" height="36.000000" transform="translate(0.500000 0.500000)" fill="#FFFFFF" fill-opacity="0"/>
	<g clip-path="url(#clip12352_7838)">
		<path id="Vector" d="M183.3 35.37C182.77 35.37 170.56 35.36 170.56 35.36L170.56 -0.01L175.94 -0.01L175.94 30.04L183.92 30.04L183.92 30.07C187.64 29.76 190.57 26.73 190.57 23.03C190.57 19.13 187.32 15.96 183.31 15.96L183.31 10.68C190.32 10.69 196 16.21 196 23.03C196 29.84 190.31 35.37 183.3 35.37ZM162.45 16.01L154.47 16.01L154.47 15.99C150.74 16.29 147.82 19.33 147.82 23.03C147.82 26.92 151.06 30.09 155.07 30.1L155.07 35.37C148.07 35.36 142.39 29.84 142.39 23.03C142.39 16.21 148.07 10.68 155.08 10.68C155.62 10.68 167.81 10.67 167.81 10.67L167.83 29.49L162.45 29.49L162.45 16.01ZM134.71 34.04L132 34.04L131.3 35.58L130.39 35.58L132.87 30.5L133.8 30.5L136.44 35.58L135.46 35.58L134.71 34.04ZM133.78 32.08C133.57 31.66 133.41 31.3 133.31 31.02C133.22 31.35 133.11 31.68 132.96 32L132.25 33.5L134.45 33.5L133.78 32.08ZM130.35 24.64L126.91 24.64L126.91 13.44L120.91 13.44L120.91 10.66L136.42 10.66L136.42 13.44L130.35 13.44L130.35 24.64ZM113.75 24.64L107.43 24.64C103.57 24.64 102.12 23.25 102.12 19.86L102.12 18.8L98.67 18.8L98.67 24.64L95.23 24.64L95.23 10.66L98.67 10.66L98.67 16.02L102.12 16.02L102.12 15.45C102.12 11.63 103.52 10.5 107.43 10.5L113.75 10.5C117.31 10.5 118.94 11.53 118.94 15.45L118.94 19.86C118.94 23.35 117.76 24.64 113.75 24.64ZM115.5 15.78C115.5 13.74 114.8 13.28 112.75 13.28L108.32 13.28C106.17 13.28 105.57 13.8 105.57 15.8L105.57 19.52C105.57 21.36 106.17 21.86 108.26 21.86L112.81 21.86C115.01 21.86 115.5 21.39 115.5 19.5L115.5 15.78ZM93.36 33.32L92.37 33.32C92.15 33.32 91.99 33.33 91.89 33.35C91.76 33.37 91.63 33.42 91.5 33.48C91.37 33.55 91.23 33.66 91.06 33.82C90.9 33.98 90.7 34.22 90.45 34.52L89.59 35.58L88.52 35.58L89.64 34.2C89.87 33.93 90.1 33.7 90.35 33.52C90.47 33.44 90.64 33.35 90.87 33.27C90.25 33.2 89.79 33.04 89.49 32.79C89.19 32.55 89.04 32.24 89.04 31.88C89.04 31.6 89.13 31.35 89.31 31.12C89.49 30.89 89.73 30.73 90.03 30.63C90.33 30.54 90.77 30.5 91.35 30.5L94.21 30.5L94.21 35.58L93.36 35.58L93.36 33.32ZM93.36 31.06L91.31 31.06C90.83 31.06 90.48 31.14 90.26 31.29C90.04 31.45 89.93 31.64 89.93 31.88C89.93 32.05 89.98 32.2 90.1 32.34C90.21 32.48 90.38 32.58 90.6 32.64C90.82 32.71 91.13 32.74 91.52 32.74L93.36 32.74L93.36 31.06ZM89.45 13.44L81.38 13.44L81.38 19.56C81.38 23.15 79.86 24.64 77.3 24.64L75.84 24.64L75.84 21.86C77.61 21.86 77.94 21.21 77.94 19.18L77.94 10.66L92.89 10.66L92.89 24.64L89.45 24.64L89.45 13.44ZM76.43 32.59L79.79 32.59L79.79 30.5L80.64 30.5L80.64 35.58L79.79 35.58L79.79 33.19L76.43 33.19L76.43 35.58L75.58 35.58L75.58 30.5L76.43 30.5L76.43 32.59ZM69.28 24.64L62.97 24.64C59.12 24.64 57.67 23.25 57.67 19.86L57.67 15.47C57.67 11.65 59.06 10.5 62.97 10.5L69.28 10.5C72.85 10.5 74.48 11.55 74.48 15.47L74.48 19.86C74.48 23.35 73.3 24.64 69.28 24.64ZM71.04 15.78C71.04 13.74 70.34 13.28 68.29 13.28L63.86 13.28C61.7 13.28 61.1 13.8 61.1 15.8L61.1 19.52C61.1 21.36 61.7 21.86 63.8 21.86L68.35 21.86C70.54 21.86 71.04 21.39 71.04 19.5L71.04 15.78ZM44.91 21.86L49.32 21.86C51.37 21.86 52.07 21.5 52.07 19.81L55.53 19.81C55.51 23.53 54.58 24.64 50.34 24.64L43.94 24.64C39.97 24.64 38.7 23.45 38.7 19.7L38.7 15.74C38.7 11.65 40.05 10.5 44.27 10.5L49.99 10.5C53.38 10.5 55.51 11.45 55.51 15.37L52.07 15.37C52.07 13.9 51.31 13.28 49.32 13.28L44.91 13.28C42.61 13.28 42.14 13.66 42.14 15.86L42.14 19.32C42.14 21.46 42.94 21.86 44.91 21.86ZM36.29 35.58L35.43 35.58L35.43 31.1L33.3 31.1L33.3 30.5L38.42 30.5L38.42 31.1L36.29 31.1L36.29 35.58ZM31.24 15.88C34.64 15.88 36.44 16.7 36.44 20.27C36.44 23.79 34.75 24.64 31.33 24.64L21.53 24.64L21.53 10.66L35.01 10.66L35.01 13.3L24.97 13.3L24.97 15.88L31.24 15.88ZM24.97 21.86L30.91 21.86C32.76 21.86 33.01 21.46 33.01 20.23C33.01 19.16 32.82 18.66 31.04 18.66L24.97 18.66L24.97 21.86ZM25.22 31.1L21.41 31.1L21.41 32.65L24.98 32.65L24.98 33.25L21.41 33.25L21.41 34.98L25.38 34.98L25.38 35.58L20.55 35.58L20.55 30.5L25.22 30.5L25.22 31.1ZM14.39 21.11L5.88 21.11L4.01 24.64L0 24.64L7.62 10.66L12.71 10.66L20.27 24.64L16.23 24.64L14.39 21.11ZM10.27 13.28L10.1 13.28L7.27 18.48L13 18.48L10.27 13.28ZM0.77 34.52L4.21 30.5L5.07 30.5L5.07 35.58L4.29 35.58L4.29 31.56L0.85 35.58L0 35.58L0 30.5L0.77 30.5L0.77 34.52ZM7.87 32.59L11.22 32.59L11.22 30.5L12.08 30.5L12.08 35.58L11.22 35.58L11.22 33.19L7.87 33.19L7.87 35.58L7.01 35.58L7.01 30.5L7.87 30.5L7.87 32.59ZM17.58 30.65C17.88 30.75 18.12 30.91 18.29 31.13C18.45 31.34 18.54 31.56 18.54 31.8C18.54 32.02 18.46 32.22 18.31 32.41C18.16 32.6 17.94 32.76 17.63 32.88C18.03 32.97 18.33 33.12 18.54 33.34C18.75 33.56 18.85 33.81 18.85 34.11C18.85 34.35 18.79 34.57 18.66 34.77C18.53 34.98 18.37 35.13 18.19 35.25C18 35.36 17.76 35.44 17.48 35.5C17.2 35.55 16.85 35.58 16.43 35.58L13.97 35.58L13.97 30.5L16.4 30.5C16.89 30.5 17.29 30.55 17.58 30.65ZM14.82 34.98L16.44 34.98C16.71 34.98 16.91 34.98 17.02 34.96C17.22 34.93 17.38 34.89 17.52 34.82C17.65 34.76 17.76 34.66 17.84 34.54C17.93 34.41 17.97 34.27 17.97 34.11C17.97 33.92 17.91 33.75 17.78 33.61C17.66 33.47 17.49 33.38 17.27 33.32C17.05 33.26 16.73 33.23 16.32 33.23L14.82 33.23L14.82 34.98ZM14.82 31.1L14.82 32.63L16.22 32.63C16.6 32.63 16.87 32.62 17.04 32.58C17.26 32.53 17.42 32.44 17.53 32.32C17.64 32.21 17.7 32.06 17.7 31.88C17.7 31.71 17.64 31.56 17.54 31.43C17.44 31.3 17.29 31.21 17.1 31.17C16.91 31.12 16.58 31.1 16.12 31.1L14.82 31.1ZM28.3 30.71C28.77 30.51 29.3 30.41 29.87 30.41C30.52 30.41 31.06 30.54 31.5 30.8C31.94 31.06 32.25 31.42 32.42 31.89L31.58 32.05C31.43 31.68 31.21 31.41 30.93 31.24C30.64 31.07 30.28 30.98 29.85 30.98C29.35 30.98 28.94 31.08 28.6 31.27C28.27 31.45 28.03 31.7 27.9 32.02C27.76 32.34 27.7 32.66 27.7 33C27.7 33.43 27.78 33.81 27.94 34.13C28.1 34.45 28.35 34.69 28.68 34.85C29.02 35.01 29.39 35.09 29.78 35.09C30.26 35.09 30.67 34.98 31 34.76C31.33 34.55 31.56 34.22 31.68 33.8L32.53 33.97C32.35 34.52 32.03 34.94 31.56 35.23C31.1 35.52 30.53 35.67 29.85 35.67C29.16 35.67 28.59 35.55 28.15 35.33C27.72 35.11 27.38 34.79 27.16 34.36C26.93 33.94 26.82 33.48 26.82 33C26.82 32.47 26.94 32.01 27.2 31.61C27.46 31.22 27.82 30.92 28.3 30.71ZM40.6 34.52L44.04 30.5L44.9 30.5L44.9 35.58L44.12 35.58L44.12 31.56L40.68 35.58L39.82 35.58L39.82 30.5L40.6 30.5L40.6 34.52ZM47.67 34.98L51.04 34.98L51.04 30.5L51.89 30.5L51.89 34.98L52.49 34.98L52.49 37L51.72 37L51.72 35.58L46.81 35.58L46.81 30.5L47.67 30.5L47.67 34.98ZM54.78 34.52L58.22 30.5L59.08 30.5L59.08 35.58L58.3 35.58L58.3 31.56L54.86 35.58L54 35.58L54 30.5L54.78 30.5L54.78 34.52ZM63.82 30.41C64.42 30.41 64.96 30.52 65.44 30.74C65.91 30.97 66.28 31.28 66.53 31.68C66.78 32.08 66.91 32.54 66.91 33.04C66.91 33.56 66.78 34.02 66.51 34.43C66.25 34.84 65.87 35.14 65.39 35.35C64.9 35.56 64.38 35.67 63.82 35.67C63.21 35.67 62.67 35.55 62.19 35.32C61.71 35.09 61.35 34.77 61.1 34.37C60.85 33.97 60.73 33.55 60.73 33.1C60.73 32.26 61.02 31.6 61.59 31.12C62.17 30.65 62.91 30.41 63.82 30.41ZM62.24 34.56C62.66 34.91 63.18 35.09 63.81 35.09C64.46 35.09 64.99 34.91 65.41 34.55C65.82 34.2 66.03 33.69 66.03 33.04C66.03 32.63 65.94 32.27 65.76 31.96C65.58 31.65 65.32 31.41 64.98 31.24C64.64 31.07 64.25 30.98 63.83 30.98C63.22 30.98 62.7 31.15 62.26 31.48C61.83 31.8 61.61 32.35 61.61 33.11C61.61 33.73 61.82 34.21 62.24 34.56ZM69.4 32.59L72.76 32.59L72.76 30.5L73.61 30.5L73.61 35.58L72.76 35.58L72.76 33.19L69.4 33.19L69.4 35.58L68.55 35.58L68.55 30.5L69.4 30.5L69.4 32.59ZM85.27 30.5L87.91 35.58L86.94 35.58L86.19 34.04L83.47 34.04L82.77 35.58L81.87 35.58L84.34 30.5L85.27 30.5ZM85.92 33.5L85.25 32.08C85.04 31.66 84.89 31.3 84.78 31.02C84.7 31.35 84.58 31.68 84.43 32L83.72 33.5L85.92 33.5ZM103.33 31.1L100 31.1L100 35.58L99.15 35.58L99.15 30.5L103.33 30.5L103.33 31.1ZM107.96 30.55C108.27 30.59 108.54 30.67 108.75 30.78C108.97 30.9 109.14 31.06 109.27 31.27C109.4 31.48 109.47 31.72 109.47 31.97C109.47 32.4 109.29 32.76 108.94 33.06C108.59 33.36 107.96 33.51 107.05 33.51L105.39 33.51L105.39 35.58L104.54 35.58L104.54 30.5L106.97 30.5C107.4 30.5 107.73 30.51 107.96 30.55ZM105.39 32.91L107.06 32.91C107.61 32.91 108.01 32.83 108.24 32.67C108.47 32.51 108.59 32.28 108.59 31.99C108.59 31.77 108.52 31.59 108.38 31.44C108.25 31.29 108.07 31.19 107.84 31.14C107.7 31.11 107.43 31.1 107.04 31.1L105.39 31.1L105.39 32.91ZM111.07 30.5L113.19 33.62L115.03 30.5L115.88 30.5L113.46 34.45C113.15 34.95 112.9 35.27 112.71 35.42C112.52 35.57 112.24 35.65 111.88 35.65C111.66 35.65 111.39 35.61 111.06 35.53L111.06 34.96C111.29 35.06 111.54 35.11 111.79 35.11C112 35.11 112.18 35.06 112.33 34.95C112.48 34.85 112.65 34.61 112.83 34.23L110.21 30.5L111.07 30.5ZM122.2 35.58L121.34 35.58L121.34 31.1L117.97 31.1L117.97 35.58L117.12 35.58L117.12 30.5L122.2 30.5L122.2 35.58ZM129.19 35.58L128.34 35.58L128.34 31.1L124.97 31.1L124.97 35.58L124.11 35.58L124.11 30.5L129.19 30.5L129.19 35.58Z" fill="#2777B4" fill-opacity="1.000000" fill-rule="evenodd"/>
	</g>
</svg>
