<svg width="131.000000" height="59.000000" viewBox="0 0 131 59" fill="none" xmlns="http://www.w3.org/2000/svg" xmlns:xlink="http://www.w3.org/1999/xlink">
	<desc>
			Created with Pixso.
	</desc>
	<defs>
		<clipPath id="clip12352_7841">
			<rect id="logo.e619244 1" rx="0.000000" width="130.000000" height="58.000000" transform="translate(0.500000 0.500000)" fill="white" fill-opacity="0"/>
		</clipPath>
	</defs>
	<rect id="logo.e619244 1" rx="0.000000" width="130.000000" height="58.000000" transform="translate(0.500000 0.500000)" fill="#FFFFFF" fill-opacity="0"/>
	<g clip-path="url(#clip12352_7841)">
		<path id="Vector" d="M95.95 32.82C95.39 33.45 94.7 33.96 93.93 34.3C93.17 34.65 92.34 34.83 91.5 34.83C89.92 34.8 88.41 34.14 87.31 33C86.2 31.85 85.58 30.31 85.58 28.7C85.58 27.09 86.2 25.55 87.31 24.41C88.41 23.26 89.92 22.6 91.5 22.57C92.8 22.57 94 23 94.99 23.71L98.27 19.01C96.29 17.58 93.93 16.81 91.5 16.81C88.4 16.81 85.42 18.06 83.23 20.29C81.04 22.52 79.8 25.55 79.8 28.7C79.8 31.86 81.04 34.88 83.23 37.11C85.42 39.34 88.4 40.6 91.5 40.6C94.37 40.59 97.14 39.52 99.27 37.57L95.95 32.82ZM69.35 17.51L66.08 22.2C67.73 22.37 69.24 23.17 70.32 24.44C71.4 25.72 71.95 27.36 71.87 29.04C71.78 30.72 71.07 32.3 69.87 33.45C68.67 34.61 67.08 35.25 65.42 35.25L65.42 11.64L59.98 11.64L59.98 16.81C58.44 16.81 56.92 17.11 55.5 17.71C54.08 18.31 52.79 19.19 51.71 20.29C50.62 21.39 49.76 22.71 49.17 24.15C48.58 25.59 48.28 27.14 48.28 28.7C48.28 30.26 48.58 31.81 49.17 33.25C49.76 34.7 50.62 36.01 51.71 37.11C52.79 38.22 54.08 39.09 55.5 39.69C56.92 40.29 58.44 40.6 59.98 40.6L59.98 45.95L65.42 45.95L65.42 40.59C68.18 40.6 70.85 39.61 72.96 37.81C75.07 36.01 76.49 33.5 76.96 30.74C77.43 27.98 76.92 25.13 75.53 22.71C74.14 20.29 71.95 18.45 69.35 17.51ZM53.54 28.7C53.54 27.84 53.71 26.99 54.03 26.2C54.35 25.41 54.83 24.68 55.42 24.08C56.02 23.47 56.73 22.99 57.51 22.66C58.29 22.33 59.13 22.16 59.97 22.16L59.97 35.24C59.13 35.24 58.29 35.07 57.51 34.74C56.73 34.41 56.02 33.93 55.43 33.33C54.83 32.72 54.35 32 54.03 31.2C53.71 30.41 53.54 29.56 53.54 28.7L53.54 28.7ZM108.59 40.12L102.63 40.12L102.63 17.28L108.58 17.28L108.59 40.12ZM109.34 28.7L117.39 17.28L123.59 17.28L115.47 28.54L124.01 40.12L117.73 40.12L109.34 28.7Z" fill="#1B1B1E" fill-opacity="1.000000" fill-rule="evenodd"/>
		<path id="Vector" d="M16.16 20.16L39.6 20.16C38.44 17.5 36.75 15.12 34.64 13.17C32.53 11.21 30.05 9.71 27.35 8.78L16.16 20.16L16.16 20.16Z" fill="#E84E0E" fill-opacity="1.000000" fill-rule="nonzero"/>
		<path id="Vector" d="M40.76 23.5L12.19 23.5C11.86 23.5 11.54 23.41 11.27 23.22C11 23.04 10.79 22.78 10.66 22.47C10.54 22.16 10.51 21.82 10.57 21.5C10.63 21.17 10.79 20.88 11.02 20.64L23.59 7.86C22.63 7.72 21.67 7.65 20.7 7.65C9.26 7.65 0 17.07 0 28.7C0 30.26 0.17 31.77 0.48 33.24L29.36 33.24C29.69 33.24 30.01 33.33 30.28 33.52C30.55 33.7 30.76 33.96 30.89 34.27C31.01 34.58 31.04 34.92 30.98 35.24C30.92 35.57 30.76 35.87 30.53 36.1L17.37 49.48C18.45 49.66 19.56 49.76 20.69 49.76C32.13 49.76 41.39 40.33 41.39 28.71C41.4 26.91 41.18 25.17 40.76 23.5Z" fill="#E84E0E" fill-opacity="1.000000" fill-rule="nonzero"/>
		<path id="Vector" d="M25.41 36.59L1.52 36.59C2.62 39.33 4.26 41.81 6.36 43.86C8.45 45.92 10.95 47.5 13.69 48.51L25.41 36.59Z" fill="#E84E0E" fill-opacity="1.000000" fill-rule="nonzero"/>
	</g>
</svg>
