<svg width="101.111328" height="30.814941" viewBox="0 0 101.111 30.8149" fill="none" xmlns="http://www.w3.org/2000/svg" xmlns:xlink="http://www.w3.org/1999/xlink">
	<desc>
			Created with Pixso.
	</desc>
	<defs/>
	<path id="Vector" d="M0 30.81L0 0L30.2 0L30.2 30.81L21.48 30.81L21.48 7.64L8.71 7.64L8.71 30.81L0 30.81ZM55.94 12.98L42 30.81L34.25 30.81L34.25 0L42.97 0L42.97 17.83L56.91 0L64.66 0L64.66 30.81L55.94 30.81L55.94 12.98ZM77.43 18.4L77.43 30.81L68.71 30.81L68.71 0L77.43 0L77.43 12.77L87.85 0L98.02 0L85.62 14.95L101.11 30.81L89.39 30.81L77.43 18.4Z" fill="#FC4C02" fill-opacity="1.000000" fill-rule="nonzero"/>
</svg>
