<svg width="47.364014" height="44.651123" viewBox="0 0 47.364 44.6511" fill="none" xmlns="http://www.w3.org/2000/svg" xmlns:xlink="http://www.w3.org/1999/xlink">
	<desc>
			Created with Pixso.
	</desc>
	<defs/>
	<path id="Vector" d="M31.13 16.74L23.68 44.65L16.23 16.74L31.13 16.74ZM21.62 0L16.53 13.02L30.82 13.02L25.73 0L21.62 0ZM35.08 13.02L47.36 13.02C47.17 12.49 46.9 11.99 46.56 11.53L39.5 2.33C38.94 1.61 38.21 1.02 37.36 0.61C36.51 0.21 35.57 0 34.62 0L29.99 0L35.08 13.02ZM35.25 16.74L29.72 37.76L46.4 18.23C46.77 17.78 47.07 17.27 47.28 16.74L35.25 16.74ZM12.11 16.74L0.08 16.74C0.29 17.27 0.59 17.78 0.97 18.23L17.64 37.76L12.11 16.74ZM12.28 13.02L17.37 0L12.74 0C11.78 0 10.84 0.21 9.99 0.61C9.14 1.02 8.41 1.61 7.86 2.33L0.79 11.53C0.45 11.99 0.18 12.49 0 13.02L12.28 13.02Z" fill="#EE2A36" fill-opacity="1.000000" fill-rule="nonzero"/>
</svg>
