<svg width="48.000000" height="44.000000" viewBox="0 0 48 44" fill="none" xmlns="http://www.w3.org/2000/svg" xmlns:xlink="http://www.w3.org/1999/xlink">
	<desc>
			Created with Pixso.
	</desc>
	<defs/>
	<path id="Vector" d="M20 4L0 4L0 0L20 0L20 4ZM16 8L0 8L0 12L16 12L16 8ZM12 16L0 16L0 20L12 20L12 16ZM24 0L24 8L20 8L20 16L16 16L16 24L0 24L0 34L30 34L30 6C30 2.69 27.3 0 24 0ZM39 44C41.76 44 44 41.76 44 39C44 38.65 43.95 38.32 43.88 38L34.11 38C34.04 38.32 33.99 38.65 33.99 39C33.99 41.76 36.23 44 39 44ZM10.99 44C13.76 44 15.99 41.76 15.99 39C15.99 38.65 15.95 38.32 15.88 38L6.11 38C6.04 38.32 6 38.65 6 39C6 41.76 8.23 44 10.99 44ZM34 34L48 34L48 24L34 24L34 34ZM38 8L34 8L34 20L48 20L48 18C48 12.48 43.51 8 38 8Z" fill="#EE2A36" fill-opacity="1.000000" fill-rule="nonzero"/>
</svg>
