<svg width="40.000000" height="48.000000" viewBox="0 0 40 48" fill="none" xmlns="http://www.w3.org/2000/svg" xmlns:xlink="http://www.w3.org/1999/xlink">
	<desc>
			Created with Pixso.
	</desc>
	<defs/>
	<path id="Vector" d="M35.88 5.26L20 0L4.11 5.26C2.91 5.66 1.87 6.42 1.13 7.44C0.39 8.47 -0.01 9.7 0 10.96L0 23.98C0 39.03 18.4 47.34 19.18 47.68L19.89 48L20.63 47.75C21.42 47.49 40 41.13 40 23.98L40 10.96C40 9.7 39.6 8.47 38.86 7.44C38.12 6.42 37.08 5.66 35.88 5.26ZM20.88 27.96C20.53 28.31 20.12 28.59 19.66 28.78C19.2 28.97 18.71 29.06 18.21 29.06L18.15 29.06C17.64 29.05 17.14 28.94 16.68 28.74C16.22 28.53 15.8 28.23 15.46 27.86L10.85 23.06L13.73 20.3L18.22 24.98L28.58 14.62L31.41 17.44L20.88 27.96Z" fill="#EE2A36" fill-opacity="1.000000" fill-rule="nonzero"/>
</svg>
