<svg width="44.095520" height="47.988037" viewBox="0 0 44.0955 47.988" fill="none" xmlns="http://www.w3.org/2000/svg" xmlns:xlink="http://www.w3.org/1999/xlink">
	<desc>
			Created with Pixso.
	</desc>
	<defs/>
	<path id="Vector" d="M42.48 18.03L24.44 0L7.89 1.79L8.32 5.77L22.97 4.18L39.65 20.86C40.24 21.45 40.24 22.41 39.63 23.03L37.7 25.01L20.29 7.6L2.01 10.1L0 28.34L18.02 46.37C19.06 47.41 20.45 47.98 21.92 47.98C23.4 47.98 24.78 47.41 25.85 46.35L38.33 33.45C39.66 32.12 40.16 30.27 39.85 28.55L42.48 25.83C44.63 23.68 44.63 20.18 42.48 18.03ZM10.09 19.98C8.98 19.98 8.09 19.09 8.09 17.98C8.09 16.88 8.98 15.98 10.09 15.98C11.19 15.98 12.09 16.88 12.09 17.98C12.09 19.09 11.19 19.98 10.09 19.98Z" fill="#EE2A36" fill-opacity="1.000000" fill-rule="nonzero"/>
</svg>
