<svg width="14.000000" height="11.000000" viewBox="0 0 14 11" fill="none" xmlns="http://www.w3.org/2000/svg" xmlns:xlink="http://www.w3.org/1999/xlink">
	<desc>
			Created with Pixso.
	</desc>
	<defs/>
	<path id="Union" d="M1.25 0.41L0.83 0L0 0.82L0.41 1.23L4.71 5.5L0.41 9.76L0 10.17L0.83 11L1.25 10.58L5.96 5.91C6.19 5.68 6.19 5.31 5.96 5.08L1.25 0.41ZM7.12 9.58L6.53 9.58L6.53 10.75L7.12 10.75L13.41 10.75L14 10.75L14 9.58L13.41 9.58L7.12 9.58ZM6.53 0.24L7.12 0.24L13.41 0.24L14 0.24L14 1.41L13.41 1.41L7.12 1.41L6.53 1.41L6.53 0.24ZM8.69 4.91L8.1 4.91L8.1 6.08L8.69 6.08L13.41 6.08L14 6.08L14 4.91L13.41 4.91L8.69 4.91Z" fill="#1B1B1E" fill-opacity="1.000000" fill-rule="evenodd"/>
</svg>
