<svg width="13.207031" height="13.207031" viewBox="0 0 13.207 13.207" fill="none" xmlns="http://www.w3.org/2000/svg" xmlns:xlink="http://www.w3.org/1999/xlink">
	<desc>
			Created with Pixso.
	</desc>
	<defs/>
	<path id="Union" d="M1 5.83C1 3.16 3.16 1 5.83 1C8.5 1 10.66 3.16 10.66 5.83C10.66 7.07 10.19 8.21 9.42 9.06L9.06 9.42C8.21 10.19 7.07 10.66 5.83 10.66C3.16 10.66 1 8.5 1 5.83ZM9.58 10.29C8.57 11.15 7.26 11.66 5.83 11.66C2.61 11.66 0 9.05 0 5.83C0 2.61 2.61 0 5.83 0C9.05 0 11.66 2.61 11.66 5.83C11.66 7.26 11.15 8.57 10.29 9.58L12.85 12.14L13.2 12.5L12.49 13.2L12.14 12.85L9.58 10.29Z" fill="#FFFFFF" fill-opacity="0.700000" fill-rule="evenodd"/>
</svg>
