<svg width="96.000000" height="16.000000" viewBox="0 0 96 16" fill="none" xmlns="http://www.w3.org/2000/svg" xmlns:xlink="http://www.w3.org/1999/xlink">
	<desc>
			Created with Pixso.
	</desc>
	<defs/>
	<path id="Star 1" d="M8.13 1L9.81 6.18L15.26 6.18L10.85 9.38L12.54 14.56L8.13 11.36L3.72 14.56L5.4 9.38L1 6.18L6.44 6.18L8.13 1Z" fill="#FBD042" fill-opacity="1.000000" fill-rule="evenodd"/>
	<path id="Star 1" d="M28.13 1L29.81 6.18L35.26 6.18L30.85 9.38L32.54 14.56L28.13 11.36L23.72 14.56L25.4 9.38L21 6.18L26.44 6.18L28.13 1Z" fill="#FBD042" fill-opacity="1.000000" fill-rule="evenodd"/>
	<path id="Star 1" d="M48.13 1L49.81 6.18L55.26 6.18L50.85 9.38L52.54 14.56L48.13 11.36L43.72 14.56L45.4 9.38L41 6.18L46.44 6.18L48.13 1Z" fill="#FBD042" fill-opacity="1.000000" fill-rule="evenodd"/>
	<path id="Star 1" d="M68.13 1L69.81 6.18L75.26 6.18L70.85 9.38L72.54 14.56L68.13 11.36L63.72 14.56L65.4 9.38L61 6.18L66.44 6.18L68.13 1Z" fill="#FBD042" fill-opacity="1.000000" fill-rule="evenodd"/>
	<path id="Star 1" d="M88.13 1L89.81 6.18L95.26 6.18L90.85 9.38L92.54 14.56L88.13 11.36L83.72 14.56L85.4 9.38L81 6.18L86.44 6.18L88.13 1Z" fill="#FBD042" fill-opacity="1.000000" fill-rule="evenodd"/>
</svg>
