<svg width="24.000198" height="24.000000" viewBox="0 0 24.0002 24" fill="none" xmlns="http://www.w3.org/2000/svg" xmlns:xlink="http://www.w3.org/1999/xlink">
	<desc>
			Created with Pixso.
	</desc>
	<defs/>
	<path id="Vector" d="M17.61 12.84L23.87 19.11L20.7 22.28C20.15 22.83 19.49 23.26 18.77 23.56C18.05 23.85 17.28 24 16.5 24C9.25 24 0 14.74 0 7.5C-0.01 6.72 0.14 5.94 0.43 5.22C0.73 4.5 1.16 3.84 1.71 3.29L4.88 0.12L11.15 6.38L7.02 10.51C8.25 13.42 10.56 15.74 13.48 16.98L17.61 12.84ZM22 10L24 10C23.99 7.34 22.94 4.8 21.06 2.93C19.19 1.05 16.65 0 14 0L14 2C16.12 2 18.15 2.84 19.65 4.34C21.15 5.84 21.99 7.87 22 10ZM18 10L20 10C19.99 8.4 19.36 6.88 18.24 5.75C17.11 4.63 15.59 4 14 4L14 6C15.06 6 16.07 6.42 16.82 7.17C17.57 7.92 18 8.93 18 10Z" fill="#EE2A36" fill-opacity="1.000000" fill-rule="nonzero"/>
</svg>
