<svg width="24.000000" height="24.000000" viewBox="0 0 24 24" fill="none" xmlns="http://www.w3.org/2000/svg" xmlns:xlink="http://www.w3.org/1999/xlink">
	<desc>
			Created with Pixso.
	</desc>
	<defs>
		<clipPath id="clip11952_3851">
			<rect id="Icon/Tg" rx="0.000000" width="23.000000" height="23.000000" transform="translate(0.500000 0.500000)" fill="white" fill-opacity="0"/>
		</clipPath>
		<linearGradient x1="1200.000000" y1="0.000000" x2="1200.000000" y2="2382.200195" id="paint_linear_2_2714_0" gradientUnits="userSpaceOnUse">
			<stop stop-color="#2AABEE"/>
			<stop offset="1.000000" stop-color="#229ED9"/>
		</linearGradient>
	</defs>
	<rect id="Icon/Tg" rx="0.000000" width="23.000000" height="23.000000" transform="translate(0.500000 0.500000)" fill="#FFFFFF" fill-opacity="0"/>
	<g clip-path="url(#clip11952_3851)">
		<path id="Oval" d="M24 12C24 18.62 18.62 24 12 24C5.37 24 0 18.62 0 12C0 5.37 5.37 0 12 0C18.62 0 24 5.37 24 12Z" fill="url(#paint_linear_2_2714_0)" fill-opacity="1.000000" fill-rule="evenodd"/>
		<path id="Path-3" d="M5.43 11.87C8.93 10.34 11.26 9.34 12.43 8.85C15.76 7.47 16.45 7.23 16.9 7.22C17 7.22 17.22 7.24 17.37 7.36C17.49 7.46 17.52 7.59 17.54 7.68C17.55 7.78 17.57 7.99 17.56 8.16C17.38 10.05 16.6 14.66 16.2 16.78C16.03 17.68 15.7 17.98 15.38 18.01C14.68 18.08 14.15 17.55 13.48 17.11C12.42 16.42 11.82 15.99 10.8 15.31C9.61 14.53 10.38 14.1 11.06 13.4C11.23 13.22 14.3 10.42 14.36 10.17C14.37 10.14 14.38 10.02 14.31 9.96C14.24 9.9 14.13 9.92 14.06 9.93C13.95 9.96 12.27 11.07 9 13.28C8.52 13.61 8.09 13.77 7.7 13.76C7.27 13.75 6.44 13.52 5.83 13.32C5.08 13.08 4.48 12.95 4.53 12.53C4.56 12.32 4.86 12.09 5.43 11.87Z" fill="#FFFFFF" fill-opacity="1.000000" fill-rule="evenodd"/>
	</g>
</svg>
