<svg width="473.000000" height="97.709961" viewBox="0 0 473 97.71" fill="none" xmlns="http://www.w3.org/2000/svg" xmlns:xlink="http://www.w3.org/1999/xlink">
	<desc>
			Created with Pixso.
	</desc>
	<defs/>
	<path id="Получите" d="M20.52 39.06L25.34 39.06L25.34 11.51L3.23 11.51L3.23 39.06L8.05 39.06L8.05 15.53L20.52 15.53L20.52 39.06ZM48.94 28.87C48.94 21.5 43.85 18.16 38.87 18.16C33.89 18.16 28.8 21.5 28.8 28.87C28.8 36.28 33.89 39.55 38.87 39.55C43.85 39.55 48.94 36.28 48.94 28.87ZM156.43 30.13L171.67 30.13C172.08 23.29 168.13 18.16 161.86 18.16C156.05 18.16 151.83 22.53 151.83 28.68C151.83 34.57 155.59 39.55 162.17 39.55C167.41 39.55 170.53 36.21 171.44 32.94L166.99 32.94C166.19 34.88 164.37 35.79 161.98 35.79C159.39 35.79 156.73 33.93 156.43 30.13ZM64.62 39.06L69.15 39.06L69.15 18.61L54.4 18.61L54.02 25.95C53.6 33.7 52.05 35.48 50.37 35.48L49.92 35.48L49.92 39.06L50.75 39.06C55.47 39.06 57.75 35.14 58.32 26.59L58.62 22.18L64.62 22.18L64.62 39.06ZM72.86 45.71L74.91 45.71C79.51 45.71 80.84 44.3 82.77 39.02L89.96 18.61L85.32 18.61L80.68 33.28L76.05 18.61L71.11 18.61L78.52 38.94L78.29 39.43C77.38 42.1 76.54 42.25 74.57 42.25L72.86 42.25L72.86 45.71ZM103.33 39.06L107.85 39.06L107.85 18.61L103.33 18.61L103.33 27.69C101.77 28.11 100.55 28.26 99.38 28.26C96.6 28.26 95.39 27.28 95.39 24.69L95.39 18.61L90.86 18.61L90.86 25.49C90.86 29.94 93.3 31.95 97.59 31.95C99.45 31.95 101.16 31.72 103.33 31.15L103.33 39.06ZM131.16 39.06L131.16 18.61L126.64 18.61L116.91 32.86L116.91 18.61L112.39 18.61L112.39 39.06L116.91 39.06L126.64 24.88L126.64 39.06L131.16 39.06ZM144.65 22.18L151.6 22.18L151.6 18.61L133.14 18.61L133.14 22.18L140.13 22.18L140.13 39.06L144.65 39.06L144.65 22.18ZM156.43 26.82C156.85 22.98 159.73 21.69 161.86 21.69C164.52 21.69 166.95 23.63 167.07 26.82L156.43 26.82ZM38.87 35.86C35.98 35.86 33.47 33.58 33.47 28.87C33.47 24.16 35.98 21.84 38.87 21.84C41.76 21.84 44.26 24.16 44.26 28.87C44.26 33.58 41.76 35.86 38.87 35.86Z" fill="#1B1B1E" fill-opacity="1.000000" fill-rule="evenodd"/>
	<rect id="Frame 738002333" rx="1.500000" width="235.000000" height="49.000000" transform="translate(180.500000 0.500000)" fill="#EE2A36" fill-opacity="1.000000"/>
	<path id="бесплатную" d="M209.28 27.52C209.28 21.1 205.13 17.83 200.38 17.83C197.5 17.83 194.84 19.01 193.35 21.59C194.08 16.54 197.04 14.75 200.73 14.14L207.64 13L207.64 9.05L200.5 10.15C193.24 11.25 189.78 16.61 189.67 24.02L189.67 25.85C189.67 33.71 194.15 37.55 199.55 37.55C204.68 37.55 209.28 34.09 209.28 27.52ZM296.76 31.43C296.76 35.16 299.87 37.55 304.32 37.55C307.36 37.55 309.72 36.52 311.04 34.28C311.16 35.69 311.27 36.18 311.43 37.06L315.57 37.06C315.15 35.34 314.96 32.65 314.96 30.06C314.96 28.2 315.04 25.77 315.04 24.78C315.15 18.25 311.31 16 306.41 16C301.47 16 298.01 18.89 297.71 23.03L302.15 23.03C302.27 20.56 303.98 19.35 306.26 19.35C308.54 19.35 310.51 20.41 310.51 23.91L310.51 24.29C303.07 25.09 296.76 26.3 296.76 31.43ZM215.12 28.13L230.36 28.13C230.78 21.29 226.83 16.16 220.56 16.16C214.74 16.16 210.53 20.53 210.53 26.68C210.53 32.57 214.29 37.55 220.86 37.55C226.11 37.55 229.22 34.21 230.13 30.94L225.69 30.94C224.89 32.88 223.07 33.79 220.67 33.79C218.09 33.79 215.43 31.93 215.12 28.13ZM251.18 23.6C250.38 19.08 246.51 16.16 242.02 16.16C235.9 16.16 231.99 20.79 231.99 26.87C231.99 32.95 235.9 37.55 241.83 37.55C246.2 37.55 250.42 34.85 251.33 30.06L246.92 30.06C246.32 32.8 244.15 33.79 241.91 33.79C239.25 33.79 236.66 31.7 236.66 26.83C236.66 22.01 239.17 19.92 242.02 19.92C244.49 19.92 246.35 21.44 246.77 23.6L251.18 23.6ZM386.67 28.05C387.16 34.59 391.8 37.55 396.24 37.55C401.22 37.55 406.31 34.28 406.31 26.87C406.31 19.5 401.22 16.16 396.24 16.16C392.03 16.16 387.73 18.78 386.82 24.48L382.68 24.48L382.68 16.61L378.16 16.61L378.16 37.06L382.68 37.06L382.68 28.05L386.67 28.05ZM271.87 37.06L271.87 16.61L254.08 16.61L254.08 37.06L258.61 37.06L258.61 20.18L267.35 20.18L267.35 37.06L271.87 37.06ZM289.13 37.06L293.65 37.06L293.65 16.61L278.91 16.61L278.53 23.95C278.11 31.7 276.55 33.48 274.88 33.48L274.43 33.48L274.43 37.06L275.26 37.06C279.97 37.06 282.25 33.14 282.82 24.59L283.13 20.18L289.13 20.18L289.13 37.06ZM327.9 20.18L334.85 20.18L334.85 16.61L316.39 16.61L316.39 20.18L323.38 20.18L323.38 37.06L327.9 37.06L327.9 20.18ZM350.84 37.06L355.36 37.06L355.36 16.61L350.84 16.61L350.84 24.78L341.72 24.78L341.72 16.61L337.19 16.61L337.19 37.06L341.72 37.06L341.72 28.35L350.84 28.35L350.84 37.06ZM359.09 43.71L361.14 43.71C365.74 43.71 367.07 42.3 369 37.02L376.19 16.61L371.55 16.61L366.91 31.28L362.28 16.61L357.34 16.61L364.75 36.94L364.52 37.43C363.61 40.09 362.77 40.25 360.8 40.25L359.09 40.25L359.09 43.71ZM215.12 24.82C215.54 20.98 218.43 19.69 220.56 19.69C223.22 19.69 225.65 21.63 225.76 24.82L215.12 24.82ZM401.64 26.87C401.64 31.58 399.13 33.86 396.24 33.86C393.62 33.86 391.3 31.58 391.3 26.87C391.3 22.16 393.62 19.84 396.24 19.84C399.13 19.84 401.64 22.16 401.64 26.87ZM204.6 27.52C204.6 31.66 202.55 33.9 199.55 33.9C196.47 33.9 194.23 31.51 194.23 27.52C194.23 23.41 196.74 21.4 199.59 21.4C202.32 21.4 204.6 23.45 204.6 27.52ZM310.63 27.44L310.63 29C310.63 32.5 308.65 34.17 305.31 34.17C303.03 34.17 301.54 33.1 301.54 31.32C301.54 29 304.17 28.05 310.63 27.44Z" fill="#FFFFFF" fill-opacity="1.000000" fill-rule="evenodd"/>
	<path id="консультацию!" d="M258.08 82.96L261.05 82.96L261.81 71.07L261.81 63.51L257.25 63.51L257.25 71.07L258.08 82.96ZM158.68 85.43C158.68 89.16 161.79 91.55 166.24 91.55C169.28 91.55 171.63 90.52 172.96 88.28C173.08 89.69 173.19 90.18 173.34 91.06L177.49 91.06C177.07 89.35 176.88 86.65 176.88 84.06C176.88 82.2 176.95 79.77 176.95 78.78C177.07 72.25 173.23 70 168.33 70C163.39 70 159.93 72.89 159.63 77.03L164.07 77.03C164.19 74.56 165.9 73.35 168.18 73.35C170.46 73.35 172.43 74.41 172.43 77.91L172.43 78.29C164.98 79.08 158.68 80.3 158.68 85.43ZM41.03 80.87C41.03 73.5 35.94 70.16 30.96 70.16C25.98 70.16 20.89 73.5 20.89 80.87C20.89 88.28 25.98 91.55 30.96 91.55C35.94 91.55 41.03 88.28 41.03 80.87ZM84.27 77.6C83.47 73.08 79.6 70.16 75.11 70.16C69 70.16 65.08 74.79 65.08 80.87C65.08 86.95 69 91.55 74.92 91.55C79.29 91.55 83.51 88.85 84.42 84.06L80.02 84.06C79.41 86.8 77.24 87.79 75 87.79C72.34 87.79 69.76 85.7 69.76 80.83C69.76 76.01 72.26 73.92 75.11 73.92C77.58 73.92 79.45 75.44 79.86 77.6L84.27 77.6ZM235.1 82.05C235.6 88.59 240.23 91.55 244.68 91.55C249.66 91.55 254.75 88.28 254.75 80.87C254.75 73.5 249.66 70.16 244.68 70.16C240.46 70.16 236.17 72.78 235.25 78.48L231.11 78.48L231.11 70.61L226.59 70.61L226.59 91.06L231.11 91.06L231.11 82.05L235.1 82.05ZM9.42 82.13L16.15 91.06L21.35 91.06L13.11 80.53L20.82 70.61L15.65 70.61L9.76 78.55L7.29 78.55L7.29 70.61L2.73 70.61L2.73 91.06L7.29 91.06L7.29 82.13L9.42 82.13ZM57.63 91.06L62.15 91.06L62.15 70.61L57.63 70.61L57.63 78.78L48.51 78.78L48.51 70.61L43.99 70.61L43.99 91.06L48.51 91.06L48.51 82.35L57.63 82.35L57.63 91.06ZM86.01 97.71L88.06 97.71C92.66 97.71 93.99 96.3 95.93 91.02L103.11 70.61L98.47 70.61L93.84 85.28L89.2 70.61L84.26 70.61L91.67 90.94L91.44 91.44C90.53 94.1 89.69 94.25 87.72 94.25L86.01 94.25L86.01 97.71ZM115.92 91.06L120.44 91.06L120.44 70.61L105.69 70.61L105.31 77.94C104.9 85.7 103.34 87.48 101.67 87.48L101.21 87.48L101.21 91.06L102.05 91.06C106.76 91.06 109.04 87.14 109.61 78.59L109.91 74.18L115.92 74.18L115.92 91.06ZM133.69 77.49L129.47 77.49L129.47 70.61L124.95 70.61L124.95 91.06L133.76 91.06C138.86 91.06 141.67 89.31 141.67 84.14C141.67 79.62 139.31 77.49 133.69 77.49ZM151.53 74.18L158.48 74.18L158.48 70.61L140.02 70.61L140.02 74.18L147.01 74.18L147.01 91.06L151.53 91.06L151.53 74.18ZM201.21 87.48L198.17 87.48L198.17 70.61L193.65 70.61L193.65 87.48L185.29 87.48L185.29 70.61L180.77 70.61L180.77 91.06L197.11 91.06L197.11 95.88L201.21 95.88L201.21 87.48ZM222.45 91.06L222.45 70.61L217.93 70.61L208.2 84.86L208.2 70.61L203.68 70.61L203.68 91.06L208.2 91.06L217.93 76.88L217.93 91.06L222.45 91.06ZM30.96 87.86C28.07 87.86 25.57 85.58 25.57 80.87C25.57 76.16 28.07 73.84 30.96 73.84C33.85 73.84 36.36 76.16 36.36 80.87C36.36 85.58 33.85 87.86 30.96 87.86ZM250.07 80.87C250.07 85.58 247.57 87.86 244.68 87.86C242.06 87.86 239.74 85.58 239.74 80.87C239.74 76.16 242.06 73.84 244.68 73.84C247.57 73.84 250.07 76.16 250.07 80.87ZM133.16 87.48L129.47 87.48L129.47 81.06L133.12 81.06C135.85 81.06 137.18 81.82 137.18 84.1C137.18 86.57 135.85 87.48 133.16 87.48ZM172.55 81.44L172.55 83C172.55 86.5 170.57 88.17 167.23 88.17C164.95 88.17 163.46 87.1 163.46 85.32C163.46 83 166.09 82.05 172.55 81.44ZM256.94 91.06L262.11 91.06L262.11 85.89L256.94 85.89L256.94 91.06Z" fill="#1B1B1E" fill-opacity="1.000000" fill-rule="evenodd"/>
</svg>
