<svg width="24.000114" height="24.000000" viewBox="0 0 24.0001 24" fill="none" xmlns="http://www.w3.org/2000/svg" xmlns:xlink="http://www.w3.org/1999/xlink">
	<desc>
			Created with Pixso.
	</desc>
	<defs/>
	<rect id="Social Icons/WhatsApp/Original" rx="0.000000" width="23.000053" height="23.000000" transform="translate(0.500061 0.500000)" fill="#FFFFFF" fill-opacity="0"/>
	<path id="Vector" d="M0 24L1.68 17.83C0.64 16.03 0.09 13.98 0.09 11.89C0.1 5.33 5.43 0 11.99 0C15.17 0 18.16 1.23 20.4 3.48C22.65 5.73 23.88 8.72 23.88 11.9C23.88 18.45 18.54 23.79 11.99 23.79C10 23.79 8.04 23.29 6.3 22.34L0 24ZM6.59 20.19C8.27 21.18 9.87 21.78 11.98 21.78C17.43 21.78 21.87 17.35 21.87 11.89C21.88 6.43 17.46 2.01 11.99 2C6.54 2 2.1 6.44 2.1 11.89C2.1 14.11 2.75 15.78 3.85 17.52L2.85 21.17L6.59 20.19ZM17.98 14.72C17.91 14.6 17.71 14.53 17.41 14.38C17.11 14.23 15.65 13.51 15.38 13.41C15.11 13.31 14.91 13.26 14.71 13.56C14.51 13.86 13.94 14.53 13.77 14.72C13.6 14.92 13.42 14.95 13.12 14.8C12.83 14.65 11.87 14.34 10.73 13.32C9.85 12.54 9.25 11.56 9.08 11.26C8.91 10.97 9.06 10.81 9.21 10.66C9.35 10.53 9.51 10.31 9.66 10.14C9.81 9.96 9.86 9.84 9.96 9.64C10.06 9.44 10.01 9.27 9.93 9.12C9.86 8.97 9.26 7.51 9.02 6.91C8.77 6.34 8.53 6.41 8.35 6.4L7.78 6.39C7.58 6.39 7.26 6.47 6.99 6.77C6.71 7.07 5.95 7.78 5.95 9.25C5.95 10.71 7.01 12.12 7.16 12.32C7.31 12.52 9.25 15.52 12.23 16.81C12.94 17.11 13.5 17.3 13.93 17.43C14.64 17.66 15.29 17.63 15.8 17.55C16.37 17.47 17.56 16.83 17.81 16.14C18.05 15.44 18.05 14.85 17.98 14.72Z" fill="#25D366" fill-opacity="1.000000" fill-rule="nonzero"/>
</svg>
